
<svg width="135" height="35" viewBox="0 0 135 35" fill="none" xmlns="http://www.w3.org/2000/svg">
  <path d="M21.007 8.112C21.007 12.118 17.848 15.353 13.936 15.353C10.023 15.353 6.865 12.118 6.865 8.112C6.865 4.107 10.023 0.872 13.936 0.872C17.848 0.872 21.007 4.107 21.007 8.112Z" fill="#FF813A"/>
  <path d="M127.309 17.751C125.27 17.751 123.565 18.851 122.668 20.506V18.084H118.72V34.567H122.668V25.755C122.668 23.12 124.203 21.39 126.516 21.39C128.699 21.39 129.991 23.045 129.991 25.528V34.567H133.939V24.579C133.978 20.582 131.712 17.751 127.309 17.751Z" fill="#095BE1"/>
  <path d="M105.353 27.712C105.353 30.996 102.78 34.492 97.249 34.492C93.37 34.492 90.873 32.386 90.172 29.367L93.52 28.473C93.892 30.391 95.319 31.116 97.249 31.116C99.636 31.116 101.331 29.742 101.331 28.098C101.331 23.95 91.501 27.863 91.501 20.733C91.501 17.187 94.459 14.163 98.95 14.163C102.575 14.163 104.762 16.425 105.502 19.253L102.229 20.072C101.82 18.569 100.648 17.54 98.988 17.54C97.14 17.54 95.521 18.643 95.521 20.393C95.483 24.541 105.353 20.851 105.353 27.712Z" fill="#095BE1"/>
  <path d="M76.629 27.825C75.047 30.062 72.845 31.116 70.421 31.116C67.016 31.116 65.06 28.888 64.914 26.026H81.123C81.161 25.83 81.161 25.603 81.161 25.377C81.161 20.319 77.663 14.163 70.234 14.163C63.799 14.163 60.81 19.102 60.81 24.389C60.81 30.732 65.097 34.491 70.421 34.491C74.948 34.491 78.622 32 80.241 27.825H76.629ZM70.234 17.576C73.106 17.576 75.084 19.48 76.03 22.131H64.914C65.702 19.783 67.461 17.576 70.234 17.576Z" fill="#095BE1"/>
  <path d="M41.432 14.087H37.484V34.568H41.432V14.087Z" fill="#095BE1"/>
  <path d="M55.97 17.575C53.285 17.575 51.179 18.38 49.784 20.884V7.229H45.835V34.567H49.784V31.306C51.253 33.845 53.24 34.567 56.083 34.567C60.969 34.567 65.167 30.675 65.167 26.026C65.167 21.338 61.379 17.575 55.97 17.575ZM55.709 30.847C53.104 30.847 49.784 29.026 49.784 25.981C49.784 22.937 53.104 21.115 55.709 21.115C58.959 21.115 61.229 23.268 61.229 25.981C61.229 28.624 58.959 30.847 55.709 30.847Z" fill="#095BE1"/>
  <path d="M16.855 17.576C14.17 17.576 12.064 18.381 10.669 20.885V18.084H6.72V34.567H10.669V31.306C12.137 33.845 14.125 34.567 16.968 34.567C21.853 34.567 26.051 30.675 26.051 26.026C26.051 21.339 22.264 17.576 16.855 17.576ZM16.593 30.847C13.989 30.847 10.669 29.026 10.669 25.981C10.669 22.937 13.989 21.115 16.593 21.115C19.843 21.115 22.113 23.268 22.113 25.981C22.076 28.624 19.843 30.847 16.593 30.847Z" fill="#095BE1"/>
  <path d="M84.597 14.088H80.649V34.568H84.597V14.088Z" fill="#095BE1"/>
  <path d="M84.597 7.342H80.649V11.415H84.597V7.342Z" fill="#095BE1"/>
  <path d="M41.432 7.342H37.484V11.415H41.432V7.342Z" fill="#095BE1"/>
  <path d="M114.401 17.576C111.716 17.576 109.61 18.381 108.215 20.885V18.084H104.267V34.567H108.215V31.306C109.684 33.845 111.672 34.567 114.515 34.567C119.4 34.567 123.598 30.675 123.598 26.026C123.598 21.339 119.81 17.576 114.401 17.576ZM114.14 30.847C111.535 30.847 108.215 29.026 108.215 25.981C108.215 22.937 111.535 21.115 114.14 21.115C117.389 21.115 119.659 23.268 119.659 25.981C119.659 28.624 117.39 30.847 114.14 30.847Z" fill="#095BE1"/>
  <path d="M38.458 7.267C37.707 7.267 37.07 6.617 37.07 5.856C37.07 5.463 37.219 5.095 37.483 4.839C37.744 4.584 38.087 4.445 38.458 4.445C39.21 4.445 39.847 5.069 39.847 5.856C39.847 6.642 39.2 7.267 38.458 7.267Z" fill="#095BE1"/>
  <path d="M82.583 7.267C81.831 7.267 81.194 6.617 81.194 5.856C81.194 5.463 81.344 5.095 81.607 4.839C81.868 4.584 82.211 4.445 82.583 4.445C83.334 4.445 83.971 5.069 83.971 5.856C83.971 6.642 83.324 7.267 82.583 7.267Z" fill="#095BE1"/>
</svg>
